<svg version="1.1" xmlns="http://www.w3.org/2000/svg" style="display: block;" viewBox="0 0 2048 2048" width="1024" height="1024" preserveAspectRatio="none">
<defs>
	<linearGradient id="Gradient1" gradientUnits="userSpaceOnUse" x1="366.625" y1="1223.96" x2="286.351" y2="1024.06">
		<stop class="stop0" offset="0" stop-opacity="0.827451" stop-color="rgb(255,255,254)"/>
		<stop class="stop1" offset="1" stop-opacity="1" stop-color="rgb(255,255,255)"/>
	</linearGradient>
	<linearGradient id="Gradient2" gradientUnits="userSpaceOnUse" x1="1170.49" y1="853.345" x2="1216.47" y2="444.02">
		<stop class="stop0" offset="0" stop-opacity="1" stop-color="rgb(124,159,206)"/>
		<stop class="stop1" offset="1" stop-opacity="1" stop-color="rgb(186,213,234)"/>
	</linearGradient>
	<linearGradient id="Gradient3" gradientUnits="userSpaceOnUse" x1="1028.72" y1="1695.29" x2="1016.07" y2="1017.55">
		<stop class="stop0" offset="0" stop-opacity="1" stop-color="rgb(35,40,97)"/>
		<stop class="stop1" offset="1" stop-opacity="1" stop-color="rgb(33,63,135)"/>
	</linearGradient>
</defs>
<path transform="translate(0,0)" fill="url(#Gradient3)" d="M 397.321 625.123 C 417.232 592.49 443.173 558.928 468.458 530.323 C 568.82 416.339 701.903 336.093 849.552 300.532 C 1040.11 254.594 1241.1 285.936 1408.63 387.711 C 1500.5 443.715 1595.77 533.518 1650.83 626.731 C 1663.49 645.172 1678.86 674.235 1688.81 694.386 C 1732.37 780.575 1758.09 874.663 1764.45 971.024 C 1765.62 986.905 1767.65 1008.22 1766.98 1023.86 C 1746.31 1023.96 1720.35 1022.88 1700.65 1023.43 L 1700.32 1024.3 C 1699.65 1142.32 1667.77 1258.05 1607.91 1359.76 C 1597.87 1376.72 1584.24 1398.57 1572.08 1414.16 C 1530.08 1471.52 1479.79 1522.32 1422.85 1564.89 C 1282.27 1669.79 1106.09 1715.18 932.326 1691.28 C 744.208 1663.98 588.966 1565.52 475.806 1413.9 C 447.813 1378.85 400.19 1290.41 386.937 1247.69 C 385.135 1241.69 383.762 1238.07 381.368 1232.3 L 379.336 1224.27 L 375.889 1213.79 C 373.898 1208.71 369.819 1192.99 368.329 1187.32 C 356.146 1139.64 349.269 1090.76 347.826 1041.57 C 347.97 1035.99 347.786 1029.65 347.754 1024.01 L 521.368 1024.14 C 551.246 1024.11 585.787 1023.26 615.346 1024.21 L 617.204 1023.39 C 630.224 1024.13 670.612 1022.42 678.962 1026.24 C 681.053 1024.57 698.149 1005.24 700.894 1002.19 C 708.889 989.309 748.664 955.519 751.053 942.405 L 750.893 941.282 L 750.131 934.924 C 742.484 932.212 723.333 919.698 715.772 914.749 L 715.382 914.894 C 710.354 910.106 695.055 901.397 686.882 893.928 L 686.176 893.951 C 655.095 867.325 628.923 842.736 608.667 805.638 C 584.742 761.823 576.413 716.635 584.349 667.204 C 585.971 657.097 592.253 637.715 595.403 627.377 C 563.071 626.545 530.722 627.531 498.371 627.008 C 495.962 626.684 492.141 626.965 489.568 627.057 L 473.724 627.099 L 473.292 627.128 C 460.835 626.478 403.782 629.707 397.321 625.123 z"/>
<path transform="translate(0,0)" fill="rgb(248,252,253)" d="M 397.321 625.123 C 417.232 592.49 443.173 558.928 468.458 530.323 C 568.82 416.339 701.903 336.093 849.552 300.532 C 1040.11 254.594 1241.1 285.936 1408.63 387.711 C 1500.5 443.715 1595.77 533.518 1650.83 626.731 C 1627.35 626.899 1596.78 625.973 1574.05 626.954 L 1565.1 627.129 C 1560.42 626.652 1554.54 626.875 1549.76 626.903 C 1528.59 627.774 1507.08 626.833 1485.9 626.983 C 1475.74 627.055 1462.46 626.534 1452.54 627.745 C 1449.74 628.531 1233.45 628.834 1229.05 627.31 L 1227.8 626.593 C 1214.71 657.824 1204.49 695.322 1192.17 727.228 L 1297.36 727.202 C 1297.2 772.793 1295.64 826.244 1297.13 871.313 L 1298.11 871.275 C 1298.41 876.208 1298.48 879.14 1298.24 884.068 C 1316.31 888.543 1328.24 892.382 1345.91 898.668 L 1346.1 900.477 L 1346.1 906.538 L 1345.83 924.481 C 1345.87 931.688 1345.11 962.257 1347.32 965.924 C 1332 982.813 1313.71 1002.81 1299.36 1020.3 L 1298.36 1020.73 L 1297.4 1023.45 C 1296.61 1041.61 1297 1060.94 1297.18 1079.22 C 1297.96 1159.74 1296.18 1240.58 1297.18 1321.07 C 1262.79 1321.05 1225.8 1321.73 1191.62 1320.79 C 1170.45 1303.29 1133.71 1251.8 1113.16 1228.19 C 1102.54 1241.03 1091.52 1253.52 1080.1 1265.65 C 1062.09 1245.28 1041.75 1218.9 1024.51 1197.36 C 1019.34 1203.14 1007.12 1224.65 1002.38 1232.59 L 953.359 1314.31 C 949.041 1321.39 936.188 1343.55 931.687 1349.22 L 931.081 1351.33 C 927.853 1356.29 922.419 1364.97 919.912 1370.25 L 864.844 1369.88 C 871.111 1353.99 877.646 1337.33 882.861 1321.08 L 750.765 1321.1 C 751.555 1256.47 750.814 1190.19 750.779 1125.41 C 750.405 1120.96 750.435 1115.54 750.331 1110.99 L 701.945 1110.95 C 702.738 1100.6 702.203 1081.57 702.249 1070.58 C 702.167 1060.62 703.42 1007.84 700.894 1002.19 C 708.889 989.309 748.664 955.519 751.053 942.405 L 750.893 941.282 L 750.131 934.924 C 742.484 932.212 723.333 919.698 715.772 914.749 L 715.382 914.894 C 710.354 910.106 695.055 901.397 686.882 893.928 L 686.176 893.951 C 655.095 867.325 628.923 842.736 608.667 805.638 C 584.742 761.823 576.413 716.635 584.349 667.204 C 585.971 657.097 592.253 637.715 595.403 627.377 C 563.071 626.545 530.722 627.531 498.371 627.008 C 495.962 626.684 492.141 626.965 489.568 627.057 L 473.724 627.099 L 473.292 627.128 C 460.835 626.478 403.782 629.707 397.321 625.123 z"/>
<path transform="translate(0,0)" fill="rgb(248,252,253)" d="M 397.321 625.123 C 417.232 592.49 443.173 558.928 468.458 530.323 C 568.82 416.339 701.903 336.093 849.552 300.532 C 1040.11 254.594 1241.1 285.936 1408.63 387.711 C 1500.5 443.715 1595.77 533.518 1650.83 626.731 C 1627.35 626.899 1596.78 625.973 1574.05 626.954 L 1565.1 627.129 C 1560.42 626.652 1554.54 626.875 1549.76 626.903 C 1528.59 627.774 1507.08 626.833 1485.9 626.983 C 1475.74 627.055 1462.46 626.534 1452.54 627.745 C 1449.74 628.531 1233.45 628.834 1229.05 627.31 L 1227.8 626.593 C 1247.87 573.818 1265.71 517.29 1285.51 463.86 C 1270.96 456.82 1256.11 450.403 1241 444.629 C 1245.68 431.413 1249.77 417.937 1254.56 404.523 C 1256.58 398.133 1258.97 392.24 1261.43 386.013 C 1256.98 391.127 1252.51 396.217 1248 401.282 L 1247.97 401.889 C 1237.84 411.807 1226.74 425.659 1216.85 436.357 C 1209.39 433.703 1197.21 429.428 1189.48 428.487 L 1164.68 421.883 C 1137.29 415.099 1101.3 410.677 1072.97 408.667 C 955.448 400.329 831.349 421.203 729.167 482.003 C 671.425 516.36 622.515 564.255 596.438 627.137 C 604.062 627.124 612.844 626.889 620.369 627.157 C 615.51 628.74 601.76 629.597 596.654 629.32 L 595.403 627.377 C 563.071 626.545 530.722 627.531 498.371 627.008 C 495.962 626.684 492.141 626.965 489.568 627.057 L 473.724 627.099 L 473.292 627.128 C 460.835 626.478 403.782 629.707 397.321 625.123 z"/>
<path transform="translate(0,0)" fill="rgb(195,232,247)" d="M 1300.46 423.574 C 1310.83 425.712 1331.67 438.35 1341.73 443.872 C 1423.67 488.87 1494.69 551.36 1549.76 626.903 C 1528.59 627.774 1507.08 626.833 1485.9 626.983 C 1475.74 627.055 1462.46 626.534 1452.54 627.745 C 1449.74 628.531 1233.45 628.834 1229.05 627.31 L 1227.8 626.593 C 1247.87 573.818 1265.71 517.29 1285.51 463.86 C 1289.97 454.16 1296.65 434.073 1300.46 423.574 z"/>
<path transform="translate(0,0)" fill="rgb(158,212,238)" d="M 1300.46 423.574 C 1310.83 425.712 1331.67 438.35 1341.73 443.872 C 1423.67 488.87 1494.69 551.36 1549.76 626.903 C 1528.59 627.774 1507.08 626.833 1485.9 626.983 C 1475.74 627.055 1462.46 626.534 1452.54 627.745 C 1449.74 628.531 1233.45 628.834 1229.05 627.31 L 1451.74 627.152 C 1419.23 550.538 1358.29 500.246 1285.51 463.86 C 1289.97 454.16 1296.65 434.073 1300.46 423.574 z"/>
<path transform="translate(0,0)" fill="rgb(158,212,238)" d="M 498.371 627.008 C 509.045 611.208 524.756 593.22 537.425 578.854 C 622.915 482.826 735.092 414.466 859.624 382.507 C 952.469 358.674 1055 355.294 1148.65 374.029 C 1157.82 375.862 1190.45 381.546 1197.54 385.738 C 1186.31 397.538 1175.36 409.589 1164.68 421.883 C 1137.29 415.099 1101.3 410.677 1072.97 408.667 C 955.448 400.329 831.349 421.203 729.167 482.003 C 671.425 516.36 622.515 564.255 596.438 627.137 C 604.062 627.124 612.844 626.889 620.369 627.157 C 615.51 628.74 601.76 629.597 596.654 629.32 L 595.403 627.377 C 563.071 626.545 530.722 627.531 498.371 627.008 z"/>
<path transform="translate(0,0)" fill="rgb(148,204,238)" d="M 473.724 627.099 C 476.957 620.79 495.613 597.446 500.538 591.383 C 552.994 526.388 617.156 471.789 689.706 430.408 C 850.037 338.735 1035.69 321.202 1212.7 369.346 C 1208.16 372.633 1201.83 380.916 1198.33 385.606 L 1197.54 385.738 C 1190.45 381.546 1157.82 375.862 1148.65 374.029 C 1055 355.294 952.469 358.674 859.624 382.507 C 735.092 414.466 622.915 482.826 537.425 578.854 C 524.756 593.22 509.045 611.208 498.371 627.008 C 495.962 626.684 492.141 626.965 489.568 627.057 L 473.724 627.099 z"/>
<path transform="translate(0,0)" fill="rgb(148,204,238)" d="M 1307.49 404.092 C 1395.32 443.276 1482.43 511.669 1543.23 585.826 C 1549.16 593.052 1570.07 619.313 1574.05 626.954 L 1565.1 627.129 C 1560.42 626.652 1554.54 626.875 1549.76 626.903 C 1494.69 551.36 1423.67 488.87 1341.73 443.872 C 1331.67 438.35 1310.83 425.712 1300.46 423.574 L 1300.6 422.795 C 1302.71 418.209 1305.67 409.143 1307.49 404.092 z"/>
<path transform="translate(0,0)" fill="rgb(105,184,232)" d="M 1197.54 385.738 L 1198.33 385.606 C 1215.05 390.307 1231.62 395.536 1248 401.282 L 1247.97 401.889 C 1237.84 411.807 1226.74 425.659 1216.85 436.357 C 1209.39 433.703 1197.21 429.428 1189.48 428.487 L 1164.68 421.883 C 1175.36 409.589 1186.31 397.538 1197.54 385.738 z"/>
<path transform="translate(0,0)" fill="rgb(105,184,232)" d="M 1254.56 404.523 C 1268.08 408.259 1287.58 416.707 1300.6 422.795 L 1300.46 423.574 C 1296.65 434.073 1289.97 454.16 1285.51 463.86 C 1270.96 456.82 1256.11 450.403 1241 444.629 C 1245.68 431.413 1249.77 417.937 1254.56 404.523 z"/>
<path transform="translate(0,0)" fill="rgb(57,138,216)" d="M 1212.7 369.346 C 1245.06 378.718 1276.73 390.328 1307.49 404.092 C 1305.67 409.143 1302.71 418.209 1300.6 422.795 C 1287.58 416.707 1268.08 408.259 1254.56 404.523 C 1256.58 398.133 1258.97 392.24 1261.43 386.013 C 1256.98 391.127 1252.51 396.217 1248 401.282 C 1231.62 395.536 1215.05 390.307 1198.33 385.606 C 1201.83 380.916 1208.16 372.633 1212.7 369.346 z"/>
<path transform="translate(0,0)" fill="rgb(195,232,247)" d="M 596.438 627.137 C 622.515 564.255 671.425 516.36 729.167 482.003 C 831.349 421.203 955.448 400.329 1072.97 408.667 C 1101.3 410.677 1137.29 415.099 1164.68 421.883 L 1189.48 428.487 C 1184.07 429.347 1172.16 425.212 1166.35 423.42 L 1031.37 569.731 C 1018.89 583.536 989.542 613.491 979.026 627.313 L 923.996 687.717 C 916.652 695.879 879.646 738.658 872.752 742.635 C 861.398 729.647 858.73 728.863 840.146 727.922 C 810.542 726.422 779.991 727.349 750.256 727.12 C 750.74 771.38 750.95 815.642 750.888 859.904 C 751.006 880.725 752.411 921.408 750.893 941.282 L 750.131 934.924 C 742.484 932.212 723.333 919.698 715.772 914.749 L 715.382 914.894 C 710.354 910.106 695.055 901.397 686.882 893.928 L 686.176 893.951 C 655.095 867.325 628.923 842.736 608.667 805.638 C 584.742 761.823 576.413 716.635 584.349 667.204 C 585.971 657.097 592.253 637.715 595.403 627.377 L 596.654 629.32 C 601.76 629.597 615.51 628.74 620.369 627.157 C 612.844 626.889 604.062 627.124 596.438 627.137 z"/>
<path transform="translate(0,0)" fill="rgb(148,204,238)" d="M 620.369 627.157 C 665.37 626.575 711.643 627.257 756.795 627.236 L 979.026 627.313 L 923.996 687.717 C 916.652 695.879 879.646 738.658 872.752 742.635 C 861.398 729.647 858.73 728.863 840.146 727.922 C 810.542 726.422 779.991 727.349 750.256 727.12 C 750.74 771.38 750.95 815.642 750.888 859.904 C 751.006 880.725 752.411 921.408 750.893 941.282 L 750.131 934.924 C 742.484 932.212 723.333 919.698 715.772 914.749 L 715.382 914.894 C 710.354 910.106 695.055 901.397 686.882 893.928 L 686.176 893.951 C 655.095 867.325 628.923 842.736 608.667 805.638 C 584.742 761.823 576.413 716.635 584.349 667.204 C 585.971 657.097 592.253 637.715 595.403 627.377 L 596.654 629.32 C 601.76 629.597 615.51 628.74 620.369 627.157 z"/>
<path transform="translate(0,0)" fill="rgb(98,171,228)" d="M 686.882 893.928 C 693.914 890.572 744.898 874.066 750.219 875.786 C 743.412 886.055 724.481 905.497 715.772 914.749 L 715.382 914.894 C 710.354 910.106 695.055 901.397 686.882 893.928 z"/>
<path transform="translate(0,0)" fill="rgb(57,138,216)" d="M 715.772 914.749 C 724.481 905.497 743.412 886.055 750.219 875.786 C 750.279 895.222 750.641 915.56 750.131 934.924 C 742.484 932.212 723.333 919.698 715.772 914.749 z"/>
<path transform="translate(0,0)" fill="rgb(195,232,247)" d="M 1248 401.282 C 1252.51 396.217 1256.98 391.127 1261.43 386.013 C 1258.97 392.24 1256.58 398.133 1254.56 404.523 C 1249.77 417.937 1245.68 431.413 1241 444.629 C 1256.11 450.403 1270.96 456.82 1285.51 463.86 C 1265.71 517.29 1247.87 573.818 1227.8 626.593 C 1214.71 657.824 1204.49 695.322 1192.17 727.228 C 1182.82 727.112 1173.46 727.047 1164.11 727.035 C 1164.81 760.409 1163.48 794.156 1164.18 826.593 C 1163.9 835.789 1163.84 844.99 1163.98 854.188 C 1164.04 858.621 1164.35 867.016 1164.01 871.098 L 1116.68 871.14 C 1107.38 871.215 1097.9 871.057 1088.59 871.002 L 1097.81 846.878 L 1097.93 846.082 C 1069.09 845.21 1046.67 845.383 1017.94 842.374 C 1010.52 834.713 1003.39 825.751 996.67 817.418 L 996.136 816.607 C 977.895 793.645 955.451 767.347 938.773 743.971 L 904.425 782.362 C 895.126 769.851 882.688 755.185 872.752 742.635 C 879.646 738.658 916.652 695.879 923.996 687.717 L 979.026 627.313 C 989.542 613.491 1018.89 583.536 1031.37 569.731 L 1166.35 423.42 C 1172.16 425.212 1184.07 429.347 1189.48 428.487 C 1197.21 429.428 1209.39 433.703 1216.85 436.357 C 1226.74 425.659 1237.84 411.807 1247.97 401.889 L 1248 401.282 z"/>
<path transform="translate(0,0)" fill="rgb(248,252,253)" d="M 1248 401.282 C 1252.51 396.217 1256.98 391.127 1261.43 386.013 C 1258.97 392.24 1256.58 398.133 1254.56 404.523 C 1249.77 417.937 1245.68 431.413 1241 444.629 C 1237.1 443.07 1233.22 441.983 1230.29 439.117 C 1212.31 471.405 1189.9 505.367 1170.28 537.163 L 1056.83 719.553 L 1018.84 781.387 C 1014.86 787.96 1000.93 811.338 996.136 816.607 C 977.895 793.645 955.451 767.347 938.773 743.971 L 904.425 782.362 C 895.126 769.851 882.688 755.185 872.752 742.635 C 879.646 738.658 916.652 695.879 923.996 687.717 L 979.026 627.313 C 989.542 613.491 1018.89 583.536 1031.37 569.731 L 1166.35 423.42 C 1172.16 425.212 1184.07 429.347 1189.48 428.487 C 1197.21 429.428 1209.39 433.703 1216.85 436.357 C 1226.74 425.659 1237.84 411.807 1247.97 401.889 L 1248 401.282 z"/>
<path transform="translate(0,0)" fill="rgb(158,212,238)" d="M 1166.35 423.42 C 1172.16 425.212 1184.07 429.347 1189.48 428.487 C 1197.21 429.428 1209.39 433.703 1216.85 436.357 L 1035.37 636.759 L 971.036 707.851 C 961.196 718.783 947.776 732.86 938.773 743.971 L 904.425 782.362 C 895.126 769.851 882.688 755.185 872.752 742.635 C 879.646 738.658 916.652 695.879 923.996 687.717 L 979.026 627.313 C 989.542 613.491 1018.89 583.536 1031.37 569.731 L 1166.35 423.42 z"/>
<path transform="translate(0,0)" fill="rgb(158,212,238)" d="M 1248 401.282 C 1252.51 396.217 1256.98 391.127 1261.43 386.013 C 1258.97 392.24 1256.58 398.133 1254.56 404.523 C 1249.77 417.937 1245.68 431.413 1241 444.629 C 1237.1 443.07 1233.22 441.983 1230.29 439.117 C 1234.46 430.124 1248.3 412.215 1249.79 403.345 L 1247.97 401.889 L 1248 401.282 z"/>
<path transform="translate(0,0)" fill="url(#Gradient2)" d="M 1241 444.629 C 1256.11 450.403 1270.96 456.82 1285.51 463.86 C 1265.71 517.29 1247.87 573.818 1227.8 626.593 C 1214.71 657.824 1204.49 695.322 1192.17 727.228 C 1182.82 727.112 1173.46 727.047 1164.11 727.035 C 1164.81 760.409 1163.48 794.156 1164.18 826.593 C 1163.9 835.789 1163.84 844.99 1163.98 854.188 C 1164.04 858.621 1164.35 867.016 1164.01 871.098 L 1116.68 871.14 C 1107.38 871.215 1097.9 871.057 1088.59 871.002 L 1097.81 846.878 L 1097.93 846.082 L 1103.13 830.693 C 1104.67 827.75 1114.27 799.777 1115.81 795.493 L 1148.4 703.836 C 1178.7 618.453 1212.22 530.249 1241 444.629 z"/>
<path transform="translate(0,0)" fill="rgb(57,138,216)" d="M 1097.81 846.878 C 1100.92 847.399 1102.89 847.929 1106.04 847.852 C 1119.37 849.559 1151.31 853.704 1163.98 854.188 C 1164.04 858.621 1164.35 867.016 1164.01 871.098 L 1116.68 871.14 C 1107.38 871.215 1097.9 871.057 1088.59 871.002 L 1097.81 846.878 z"/>
<path transform="translate(0,0)" fill="rgb(98,171,228)" d="M 1103.13 830.693 C 1110.33 838.364 1107.74 840.144 1106.04 847.852 C 1102.89 847.929 1100.92 847.399 1097.81 846.878 L 1097.93 846.082 L 1103.13 830.693 z"/>
<path transform="translate(0,0)" fill="rgb(148,204,238)" d="M 883.855 1110.69 C 899.51 1111.16 915.975 1110.98 931.696 1111.02 L 953.969 1110.92 L 959.081 1111.35 L 960.008 1112.85 L 959.123 1116.43 C 977.89 1141.39 1003.97 1172.28 1023.99 1196.57 C 1033 1183.19 1042.62 1165.69 1051.55 1151.41 C 1068.64 1172.3 1098.06 1206.87 1113.16 1228.19 C 1102.54 1241.03 1091.52 1253.52 1080.1 1265.65 C 1062.09 1245.28 1041.75 1218.9 1024.51 1197.36 C 1019.34 1203.14 1007.12 1224.65 1002.38 1232.59 L 953.359 1314.31 C 949.041 1321.39 936.188 1343.55 931.687 1349.22 L 931.081 1351.33 C 927.853 1356.29 922.419 1364.97 919.912 1370.25 L 864.844 1369.88 C 871.111 1353.99 877.646 1337.33 882.861 1321.08 L 883.783 1317.7 L 883.767 1158.44 C 884.393 1143.13 883.957 1126.14 883.855 1110.69 z"/>
<path transform="translate(0,0)" fill="rgb(34,60,128)" d="M 883.855 1110.69 C 899.51 1111.16 915.975 1110.98 931.696 1111.02 L 953.969 1110.92 L 959.081 1111.35 L 960.008 1112.85 L 959.123 1116.43 C 949.922 1141.32 938.1 1170.74 930.337 1195.63 C 917.511 1223.11 907.017 1261.3 894.879 1289.83 C 892.396 1295.67 886.656 1313.2 883.783 1317.7 L 883.767 1158.44 C 884.393 1143.13 883.957 1126.14 883.855 1110.69 z"/>
<path transform="translate(0,0)" fill="rgb(98,171,228)" d="M 930.337 1195.63 C 932.571 1201.91 931.775 1219.07 931.804 1226.43 C 931.899 1251.09 931.781 1275.84 931.659 1300.5 C 931.67 1311.22 930.097 1340.63 931.687 1349.22 L 931.081 1351.33 C 927.853 1356.29 922.419 1364.97 919.912 1370.25 L 864.844 1369.88 C 871.111 1353.99 877.646 1337.33 882.861 1321.08 L 883.783 1317.7 C 886.656 1313.2 892.396 1295.67 894.879 1289.83 C 907.017 1261.3 917.511 1223.11 930.337 1195.63 z"/>
<path transform="translate(0,0)" fill="rgb(105,184,232)" d="M 996.67 817.418 C 1003.39 825.751 1010.52 834.713 1017.94 842.374 C 1046.67 845.383 1069.09 845.21 1097.93 846.082 L 1097.81 846.878 L 1088.59 871.002 C 1097.9 871.057 1107.38 871.215 1116.68 871.14 L 1164.01 871.098 C 1163.32 908.462 1163.89 947.254 1164.02 984.71 L 1146.49 992.747 C 1137.62 1004.46 1123.25 1030.35 1115.12 1044.11 C 1104 1029.75 1092.4 1015.72 1081.19 1001.17 C 1077.94 998.841 1062.01 978.311 1058.78 974.154 C 1029.53 936.477 997.985 899.986 969.213 862.035 C 972.252 857.657 976.436 849.999 979.257 845.187 L 979.729 845.066 C 981.685 840.656 993.503 822.428 996.67 817.418 z"/>
<path transform="translate(0,0)" fill="rgb(158,212,238)" d="M 1017.94 842.374 C 1046.67 845.383 1069.09 845.21 1097.93 846.082 L 1097.81 846.878 L 1088.59 871.002 C 1097.9 871.057 1107.38 871.215 1116.68 871.14 C 1116.91 876.596 1116.72 882.053 1116.57 887.509 C 1115.84 913.364 1116.39 939.222 1116 965.081 C 1083.55 927.349 1050.77 882.796 1018.24 843.992 L 1017.94 842.374 z"/>
<path transform="translate(0,0)" fill="rgb(98,171,228)" d="M 1081.19 1001.17 C 1085.43 999.145 1138.41 993.754 1146.49 992.747 C 1137.62 1004.46 1123.25 1030.35 1115.12 1044.11 C 1104 1029.75 1092.4 1015.72 1081.19 1001.17 z"/>
<path transform="translate(0,0)" fill="rgb(148,204,238)" d="M 996.67 817.418 C 1003.39 825.751 1010.52 834.713 1017.94 842.374 L 1018.24 843.992 C 1005.7 844.342 992.152 845.196 979.729 845.066 C 981.685 840.656 993.503 822.428 996.67 817.418 z"/>
<path transform="translate(0,0)" fill="rgb(98,171,228)" d="M 907.334 972.286 C 912.37 978.511 919.033 986.258 923.676 992.557 C 966.437 1044.37 1009.59 1098.76 1051.55 1151.41 C 1042.62 1165.69 1033 1183.19 1023.99 1196.57 C 1003.97 1172.28 977.89 1141.39 959.123 1116.43 L 960.008 1112.85 L 959.081 1111.35 L 953.969 1110.92 L 931.696 1111.02 C 915.975 1110.98 899.51 1111.16 883.855 1110.69 C 883.957 1126.14 884.393 1143.13 883.767 1158.44 C 882.356 1144.54 883.316 1112.13 883.392 1097 L 883.648 994.731 L 893.557 989.89 C 899.772 984.428 903.04 979.172 907.334 972.286 z"/>
<path transform="translate(0,0)" fill="rgb(148,204,238)" d="M 932.126 1083.68 C 936.002 1088.16 952.796 1107.01 953.969 1110.92 L 931.696 1111.02 C 931.836 1101.95 931.886 1092.74 932.126 1083.68 z"/>
<path transform="translate(0,0)" fill="rgb(105,184,232)" d="M 907.334 972.286 C 912.37 978.511 919.033 986.258 923.676 992.557 C 917.373 994.834 900.282 991.486 893.557 989.89 C 899.772 984.428 903.04 979.172 907.334 972.286 z"/>
<path transform="translate(0,0)" fill="rgb(148,204,238)" d="M 751.053 942.405 C 750.758 969.908 750.656 997.413 750.747 1024.92 C 750.803 1036.54 751.57 1055.32 750.854 1066.41 C 750.888 1083.6 751.757 1108.89 750.779 1125.41 C 750.405 1120.96 750.435 1115.54 750.331 1110.99 L 701.945 1110.95 C 702.738 1100.6 702.203 1081.57 702.249 1070.58 C 702.167 1060.62 703.42 1007.84 700.894 1002.19 C 708.889 989.309 748.664 955.519 751.053 942.405 z"/>
<path transform="translate(0,0)" fill="rgb(98,171,228)" d="M 750.197 1050.82 C 750.175 1056.47 750.445 1060.81 750.854 1066.41 C 750.888 1083.6 751.757 1108.89 750.779 1125.41 C 750.405 1120.96 750.435 1115.54 750.331 1110.99 L 701.945 1110.95 C 702.738 1100.6 702.203 1081.57 702.249 1070.58 C 710.839 1068.02 740.692 1054.74 750.197 1050.82 z"/>
<path transform="translate(0,0)" fill="rgb(148,204,238)" d="M 1297.13 871.313 L 1298.11 871.275 C 1298.41 876.208 1298.48 879.14 1298.24 884.068 C 1316.31 888.543 1328.24 892.382 1345.91 898.668 L 1346.1 900.477 L 1346.1 906.538 L 1345.83 924.481 C 1345.87 931.688 1345.11 962.257 1347.32 965.924 C 1332 982.813 1313.71 1002.81 1299.36 1020.3 L 1298.36 1020.73 L 1297.4 1023.45 C 1296.32 1010.45 1297.02 985.653 1297.01 972.076 L 1297.13 871.313 z"/>
<path transform="translate(0,0)" fill="rgb(105,184,232)" d="M 1298.24 884.068 C 1316.31 888.543 1328.24 892.382 1345.91 898.668 L 1346.1 900.477 L 1346.1 906.538 C 1330.12 913.318 1314.02 919.796 1297.8 925.969 L 1298.24 884.068 z"/>
<path transform="translate(0,0)" fill="rgb(158,212,238)" d="M 1297.13 871.313 L 1298.11 871.275 C 1298.41 876.208 1298.48 879.14 1298.24 884.068 L 1297.8 925.969 C 1314.02 919.796 1330.12 913.318 1346.1 906.538 L 1345.83 924.481 C 1345.09 918.816 1344.92 914.79 1344.73 909.161 C 1334.07 916.558 1309.87 932.449 1298.06 935.336 L 1298.23 987.568 C 1298.2 997.768 1297.67 1010.96 1298.36 1020.73 L 1297.4 1023.45 C 1296.32 1010.45 1297.02 985.653 1297.01 972.076 L 1297.13 871.313 z"/>
<path transform="translate(0,0)" fill="rgb(195,232,247)" d="M 938.773 743.971 C 955.451 767.347 977.895 793.645 996.136 816.607 L 996.67 817.418 C 993.503 822.428 981.685 840.656 979.729 845.066 L 979.257 845.187 C 976.436 849.999 972.252 857.657 969.213 862.035 C 964.407 856.68 960.655 851.814 956.262 846.104 C 938.948 825.702 921.38 803.259 904.425 782.362 L 938.773 743.971 z"/>
<path transform="translate(0,0)" fill="rgb(158,212,238)" d="M 956.262 846.104 C 961.131 843.945 973.657 844.911 979.257 845.187 C 976.436 849.999 972.252 857.657 969.213 862.035 C 964.407 856.68 960.655 851.814 956.262 846.104 z"/>
<path transform="translate(0,0)" fill="rgb(148,204,238)" d="M 1164.18 826.593 C 1165.03 835.621 1165.07 845.325 1165 854.408 C 1164.38 938.029 1165.73 1021.85 1164.56 1105.45 L 1115.12 1044.11 C 1123.25 1030.35 1137.62 1004.46 1146.49 992.747 L 1164.02 984.71 C 1163.89 947.254 1163.32 908.462 1164.01 871.098 C 1164.35 867.016 1164.04 858.621 1163.98 854.188 C 1163.84 844.99 1163.9 835.789 1164.18 826.593 z"/>
<path transform="translate(0,0)" fill="rgb(158,212,238)" d="M 883.377 942.583 C 891.447 950.964 900.193 962.897 907.334 972.286 C 903.04 979.172 899.772 984.428 893.557 989.89 L 883.648 994.731 L 883.377 942.583 z"/>
<path transform="translate(0,0)" fill="rgb(98,171,228)" d="M 1650.83 626.731 C 1663.49 645.172 1678.86 674.235 1688.81 694.386 C 1732.37 780.575 1758.09 874.663 1764.45 971.024 C 1765.62 986.905 1767.65 1008.22 1766.98 1023.86 C 1746.31 1023.96 1720.35 1022.88 1700.65 1023.43 L 1700.32 1024.3 C 1693.21 1023.54 1673.34 1024.1 1665.57 1024.12 L 1595.23 1024.14 L 1360.46 1024.25 C 1386.4 995.975 1416.69 962.824 1441.2 933.819 C 1429.06 929.939 1403.58 920.892 1392.32 915.966 C 1377.17 932.489 1362.17 949.143 1347.32 965.924 C 1345.11 962.257 1345.87 931.688 1345.83 924.481 L 1346.1 906.538 L 1346.1 900.477 L 1345.91 898.668 C 1328.24 892.382 1316.31 888.543 1298.24 884.068 C 1298.48 879.14 1298.41 876.208 1298.11 871.275 L 1297.13 871.313 C 1295.64 826.244 1297.2 772.793 1297.36 727.202 L 1192.17 727.228 C 1204.49 695.322 1214.71 657.824 1227.8 626.593 L 1229.05 627.31 C 1233.45 628.834 1449.74 628.531 1452.54 627.745 C 1462.46 626.534 1475.74 627.055 1485.9 626.983 C 1507.08 626.833 1528.59 627.774 1549.76 626.903 C 1554.54 626.875 1560.42 626.652 1565.1 627.129 L 1574.05 626.954 C 1596.78 625.973 1627.35 626.899 1650.83 626.731 z"/>
<path transform="translate(0,0)" fill="rgb(148,204,238)" d="M 1227.8 626.593 L 1229.05 627.31 C 1233.45 628.834 1449.74 628.531 1452.54 627.745 C 1454.66 634.656 1456.61 641.594 1458.72 648.498 C 1476.35 706.129 1463.02 773.374 1429.24 822.839 C 1416.18 840.212 1403.96 856.158 1387.98 870.994 L 1348.36 871.252 L 1348.01 871.982 C 1344.48 875.549 1346.14 892.092 1345.91 898.668 C 1328.24 892.382 1316.31 888.543 1298.24 884.068 C 1298.48 879.14 1298.41 876.208 1298.11 871.275 L 1297.13 871.313 C 1295.64 826.244 1297.2 772.793 1297.36 727.202 L 1192.17 727.228 C 1204.49 695.322 1214.71 657.824 1227.8 626.593 z"/>
<path transform="translate(0,0)" fill="rgb(98,171,228)" d="M 1297.96 822.72 C 1341.5 823.838 1385.28 821.372 1429.24 822.839 C 1416.18 840.212 1403.96 856.158 1387.98 870.994 L 1348.36 871.252 L 1348.01 871.982 C 1344.48 875.549 1346.14 892.092 1345.91 898.668 C 1328.24 892.382 1316.31 888.543 1298.24 884.068 C 1298.48 879.14 1298.41 876.208 1298.11 871.275 C 1297.27 856.618 1297.88 837.701 1297.96 822.72 z"/>
<path transform="translate(0,0)" fill="rgb(148,204,238)" d="M 1298.11 871.275 C 1314.86 871.412 1331.61 871.404 1348.36 871.252 L 1348.01 871.982 C 1344.48 875.549 1346.14 892.092 1345.91 898.668 C 1328.24 892.382 1316.31 888.543 1298.24 884.068 C 1298.48 879.14 1298.41 876.208 1298.11 871.275 z"/>
<path transform="translate(0,0)" fill="rgb(195,232,247)" d="M 1650.83 626.731 C 1663.49 645.172 1678.86 674.235 1688.81 694.386 C 1732.37 780.575 1758.09 874.663 1764.45 971.024 C 1765.62 986.905 1767.65 1008.22 1766.98 1023.86 C 1746.31 1023.96 1720.35 1022.88 1700.65 1023.43 C 1701.62 886.014 1655.7 737.856 1574.05 626.954 C 1596.78 625.973 1627.35 626.899 1650.83 626.731 z"/>
<path transform="translate(0,0)" fill="rgb(57,138,216)" d="M 1574.05 626.954 C 1655.7 737.856 1701.62 886.014 1700.65 1023.43 L 1700.32 1024.3 C 1693.21 1023.54 1673.34 1024.1 1665.57 1024.12 L 1595.23 1024.14 L 1360.46 1024.25 C 1386.4 995.975 1416.69 962.824 1441.2 933.819 L 1441.8 933.612 C 1454.92 939.353 1469.98 944.567 1483.46 949.645 C 1548.79 974.259 1610.9 997.831 1680.15 1008.28 C 1680.21 873.587 1629.86 735.261 1550.01 627.564 C 1555.94 627.749 1559.25 627.583 1565.1 627.129 L 1574.05 626.954 z"/>
<path transform="translate(0,0)" fill="rgb(57,138,216)" d="M 1429.24 822.839 C 1466.03 823.61 1504.41 822.857 1541.39 822.822 L 1478.46 892.907 C 1468.37 904.212 1452.09 923.545 1441.8 933.612 L 1441.2 933.819 C 1429.06 929.939 1403.58 920.892 1392.32 915.966 C 1377.17 932.489 1362.17 949.143 1347.32 965.924 C 1345.11 962.257 1345.87 931.688 1345.83 924.481 L 1346.1 906.538 L 1346.1 900.477 L 1345.91 898.668 C 1346.14 892.092 1344.48 875.549 1348.01 871.982 L 1348.36 871.252 L 1387.98 870.994 C 1403.96 856.158 1416.18 840.212 1429.24 822.839 z"/>
<path transform="translate(0,0)" fill="rgb(248,252,253)" d="M 1387.98 870.994 C 1400.03 871.026 1414.17 870.718 1426.01 871.951 L 1430.4 871.765 C 1430.34 874.275 1396.76 910.906 1392.32 915.966 C 1377.17 932.489 1362.17 949.143 1347.32 965.924 C 1345.11 962.257 1345.87 931.688 1345.83 924.481 L 1346.1 906.538 L 1346.1 900.477 L 1345.91 898.668 C 1346.14 892.092 1344.48 875.549 1348.01 871.982 L 1348.36 871.252 L 1387.98 870.994 z"/>
<path transform="translate(0,0)" fill="rgb(158,212,238)" d="M 1387.98 870.994 C 1400.03 871.026 1414.17 870.718 1426.01 871.951 C 1421.62 875.335 1354.73 904.083 1346.1 906.538 L 1346.1 900.477 L 1345.91 898.668 C 1346.14 892.092 1344.48 875.549 1348.01 871.982 L 1348.36 871.252 L 1387.98 870.994 z"/>
<path transform="translate(0,0)" fill="rgb(195,232,247)" d="M 1348.01 871.982 C 1360.81 872.174 1373.61 872.171 1386.41 871.974 C 1377.78 880.908 1359.44 896.736 1348.47 902.205 L 1346.98 901.991 L 1346.1 900.477 L 1345.91 898.668 C 1346.14 892.092 1344.48 875.549 1348.01 871.982 z"/>
<path transform="translate(0,0)" fill="rgb(35,84,166)" d="M 1347.32 965.924 C 1362.17 949.143 1377.17 932.489 1392.32 915.966 C 1403.58 920.892 1429.06 929.939 1441.2 933.819 C 1416.69 962.824 1386.4 995.975 1360.46 1024.25 L 1595.23 1024.14 L 1665.57 1024.12 C 1673.34 1024.1 1693.21 1023.54 1700.32 1024.3 C 1699.65 1142.32 1667.77 1258.05 1607.91 1359.76 C 1597.87 1376.72 1584.24 1398.57 1572.08 1414.16 C 1547.57 1412.7 1519.71 1413.25 1494.92 1413.26 L 1377.07 1413.28 L 1014.19 1413.48 C 1027.1 1398.3 1041.75 1382.79 1055.1 1367.75 L 1111.53 1303.59 C 1128.07 1325.63 1147.39 1347.79 1164.68 1369.64 C 1221.9 1371.42 1287.95 1369.77 1345.73 1369.69 L 1345.84 1149.11 C 1345.88 1113.45 1345.3 1075.76 1346.22 1040.22 C 1346.5 1036.39 1346.14 1027.88 1346.06 1023.72 C 1333.66 1024.31 1310.19 1025.32 1299.36 1020.3 C 1313.71 1002.81 1332 982.813 1347.32 965.924 z"/>
<path transform="translate(0,0)" fill="rgb(34,60,128)" d="M 1346.06 1023.72 C 1350.76 1023.95 1354.14 1024.2 1358.79 1024.85 C 1355.94 1028.16 1347.95 1036.98 1346.22 1040.22 C 1346.5 1036.39 1346.14 1027.88 1346.06 1023.72 z"/>
<path transform="translate(0,0)" fill="rgb(35,84,166)" d="M 347.754 1024.01 L 521.368 1024.14 C 551.246 1024.11 585.787 1023.26 615.346 1024.21 C 589.064 1056.77 556.318 1088.28 528.861 1120.28 C 519.162 1131.58 502.557 1147.81 494.372 1159.62 C 518.126 1158.97 543.738 1159.69 567.699 1159.71 L 702.064 1159.82 L 702.171 1369.69 L 813.349 1370.11 C 808.687 1382.43 801.985 1402.73 796.748 1413.8 C 768.444 1412.75 737.966 1413.27 709.483 1413.27 L 532.523 1413.28 C 513.977 1413.28 493.909 1414.15 475.806 1413.9 C 447.813 1378.85 400.19 1290.41 386.937 1247.69 C 385.135 1241.69 383.762 1238.07 381.368 1232.3 L 379.336 1224.27 L 375.889 1213.79 C 373.898 1208.71 369.819 1192.99 368.329 1187.32 C 356.146 1139.64 349.269 1090.76 347.826 1041.57 C 347.97 1035.99 347.786 1029.65 347.754 1024.01 z"/>
<path transform="translate(0,0)" fill="rgb(248,252,253)" d="M 931.687 1349.22 C 936.188 1343.55 949.041 1321.39 953.359 1314.31 L 1002.38 1232.59 C 1007.12 1224.65 1019.34 1203.14 1024.51 1197.36 C 1041.75 1218.9 1062.09 1245.28 1080.1 1265.65 C 983.673 1374.62 884.072 1484.53 789.126 1594.54 L 786.911 1593.77 L 781.559 1596.04 C 789.641 1570.86 801.399 1541.43 810.74 1516.2 L 864.844 1369.88 L 919.912 1370.25 C 922.419 1364.97 927.853 1356.29 931.081 1351.33 L 931.687 1349.22 z"/>
<path transform="translate(0,0)" fill="rgb(148,204,238)" d="M 864.844 1369.88 L 919.912 1370.25 C 889.693 1419.09 860.137 1468.34 831.251 1517.98 C 816.871 1542.32 799.904 1569.05 786.911 1593.77 L 781.559 1596.04 C 789.641 1570.86 801.399 1541.43 810.74 1516.2 L 864.844 1369.88 z"/>
<path transform="translate(0,0)" fill="rgb(148,204,238)" d="M 919.912 1370.25 C 922.419 1364.97 927.853 1356.29 931.081 1351.33 L 931.359 1370.25 L 919.912 1370.25 z"/>
<path transform="translate(0,0)" fill="rgb(248,252,253)" d="M 700.894 1002.19 C 703.42 1007.84 702.167 1060.62 702.249 1070.58 C 702.203 1081.57 702.738 1100.6 701.945 1110.95 C 669.624 1111.09 637.302 1111.01 604.982 1110.72 L 604.482 1109.75 C 611.288 1100.67 624.522 1086.73 632.272 1078.18 C 647.945 1060.97 663.509 1043.66 678.962 1026.24 C 681.053 1024.57 698.149 1005.24 700.894 1002.19 z"/>
<path transform="translate(0,0)" fill="rgb(148,204,238)" d="M 604.482 1109.75 C 613.27 1108.83 687.937 1076.31 702.249 1070.58 C 702.203 1081.57 702.738 1100.6 701.945 1110.95 C 669.624 1111.09 637.302 1111.01 604.982 1110.72 L 604.482 1109.75 z"/>
<path transform="translate(0,0)" fill="rgb(158,212,238)" d="M 786.911 1593.77 L 789.126 1594.54 L 777.019 1608.8 L 781.559 1596.04 L 786.911 1593.77 z"/>
<path transform="translate(0,0)" fill="rgb(98,171,228)" d="M 397.321 625.123 C 403.782 629.707 460.835 626.478 473.292 627.128 L 473.724 627.099 L 489.568 627.057 C 492.141 626.965 495.962 626.684 498.371 627.008 C 530.722 627.531 563.071 626.545 595.403 627.377 C 592.253 637.715 585.971 657.097 584.349 667.204 C 576.413 716.635 584.742 761.823 608.667 805.638 C 628.923 842.736 655.095 867.325 686.176 893.951 L 686.882 893.928 C 695.055 901.397 710.354 910.106 715.382 914.894 L 715.772 914.749 C 723.333 919.698 742.484 932.212 750.131 934.924 L 750.893 941.282 L 751.053 942.405 C 748.664 955.519 708.889 989.309 700.894 1002.19 C 698.149 1005.24 681.053 1024.57 678.962 1026.24 C 670.612 1022.42 630.224 1024.13 617.204 1023.39 L 615.346 1024.21 C 585.787 1023.26 551.246 1024.11 521.368 1024.14 L 347.754 1024.01 C 347.786 1029.65 347.97 1035.99 347.826 1041.57 C 346.398 1035.61 346.704 1030.3 346.669 1024.17 C 326.859 1024.06 303.48 1023.53 283.925 1024.45 C 281.365 1025.97 282.08 1026.09 280.93 1029.9 C 280.246 908.757 308.98 789.256 364.663 681.664 C 372.768 666.025 386.889 639.251 397.321 625.123 z"/>
<path transform="translate(0,0)" fill="rgb(57,138,216)" d="M 397.321 625.123 C 403.782 629.707 460.835 626.478 473.292 627.128 L 473.724 627.099 L 489.568 627.057 L 496.456 627.977 C 495.488 630.849 476.51 658.126 473.369 662.951 C 465.088 675.75 457.259 688.836 449.895 702.185 C 400.94 790.598 366.831 906.164 367.913 1007.78 C 433.02 994.969 488.027 971.564 549.301 946.962 C 594.584 928.421 640.217 910.747 686.176 893.951 L 686.882 893.928 C 695.055 901.397 710.354 910.106 715.382 914.894 L 715.772 914.749 C 723.333 919.698 742.484 932.212 750.131 934.924 L 750.893 941.282 L 751.053 942.405 C 748.664 955.519 708.889 989.309 700.894 1002.19 C 698.149 1005.24 681.053 1024.57 678.962 1026.24 C 670.612 1022.42 630.224 1024.13 617.204 1023.39 L 615.346 1024.21 C 585.787 1023.26 551.246 1024.11 521.368 1024.14 L 347.754 1024.01 C 347.786 1029.65 347.97 1035.99 347.826 1041.57 C 346.398 1035.61 346.704 1030.3 346.669 1024.17 C 326.859 1024.06 303.48 1023.53 283.925 1024.45 C 281.365 1025.97 282.08 1026.09 280.93 1029.9 C 280.246 908.757 308.98 789.256 364.663 681.664 C 372.768 666.025 386.889 639.251 397.321 625.123 z"/>
<path transform="translate(0,0)" fill="rgb(195,232,247)" d="M 397.321 625.123 C 403.782 629.707 460.835 626.478 473.292 627.128 C 457.083 652.348 441.823 675.245 427.566 701.849 C 376.808 796.569 344.983 915.929 347.754 1024.01 C 347.786 1029.65 347.97 1035.99 347.826 1041.57 C 346.398 1035.61 346.704 1030.3 346.669 1024.17 C 326.859 1024.06 303.48 1023.53 283.925 1024.45 C 281.365 1025.97 282.08 1026.09 280.93 1029.9 C 280.246 908.757 308.98 789.256 364.663 681.664 C 372.768 666.025 386.889 639.251 397.321 625.123 z"/>
<path transform="translate(0,0)" fill="rgb(35,84,166)" d="M 715.772 914.749 C 723.333 919.698 742.484 932.212 750.131 934.924 L 750.893 941.282 L 751.053 942.405 C 748.664 955.519 708.889 989.309 700.894 1002.19 C 698.149 1005.24 681.053 1024.57 678.962 1026.24 C 670.612 1022.42 630.224 1024.13 617.204 1023.39 C 646.069 988.192 684.735 949.499 715.382 914.894 L 715.772 914.749 z"/>
<path transform="translate(0,0)" fill="url(#Gradient1)" d="M 280.93 1029.9 C 282.08 1026.09 281.365 1025.97 283.925 1024.45 C 303.48 1023.53 326.859 1024.06 346.669 1024.17 C 346.704 1030.3 346.398 1035.61 347.826 1041.57 C 349.269 1090.76 356.146 1139.64 368.329 1187.32 C 369.819 1192.99 373.898 1208.71 375.889 1213.79 C 374.397 1214.05 372.908 1214.33 371.423 1214.63 C 373.482 1216.99 374.101 1217.27 375.347 1220.09 C 370.988 1226.24 328.643 1230.58 318.867 1233.58 C 317.892 1236.56 316.837 1241.48 315.666 1243.66 C 292.941 1171.96 283.218 1104.62 280.93 1029.9 z"/>
<path transform="translate(0,0)" fill="rgb(248,252,253)" fill-opacity="0.52549" d="M 321.474 1234.54 C 340.837 1234.6 357.914 1232.11 375.4 1223.68 L 376.751 1223.02 L 379.336 1224.27 L 381.368 1232.3 L 380.25 1232.45 L 376.153 1233.19 L 375.519 1230.72 C 372.311 1232.42 369.506 1236.65 367.006 1239.71 L 366.89 1240.36 L 372.349 1240.88 C 363.773 1244.54 347.927 1246.05 346.118 1248.99 C 348.35 1250.78 348.223 1250.67 350.959 1251.57 L 349.276 1254.49 C 351.556 1254.61 350.401 1254.73 352.75 1253.21 C 351.856 1257.52 347.668 1255.71 348.629 1258.59 C 351.448 1258.55 353.902 1258.23 356.464 1259.28 C 354.183 1261.2 349.227 1263.3 348.406 1264.29 C 353.443 1265.28 351.927 1264.95 357.406 1263.19 L 356.835 1264.71 C 354.927 1265.44 334.117 1272.37 333.196 1272.52 C 331.889 1270.27 331.762 1270.09 330.977 1267.63 L 327.592 1269.98 L 327.303 1268.81 C 332.084 1262.69 326.681 1260.48 330.21 1257.65 L 335.488 1258.12 C 332.295 1254.72 329.759 1253.92 325.313 1255.8 L 323.263 1254.51 C 321.005 1256.63 321.787 1255.73 320.512 1258.8 C 319.408 1256.19 318.183 1251.97 317.274 1249.18 C 320.207 1239.18 321.534 1245.85 321.474 1234.54 z"/>
<path transform="translate(0,0)" fill="rgb(248,252,253)" fill-opacity="0.482353" d="M 381.368 1232.3 C 383.762 1238.07 385.135 1241.69 386.937 1247.69 C 384.985 1255.5 383.946 1257.1 376.477 1261.41 C 368.172 1266.2 341.932 1277.18 333.003 1276.13 L 329.977 1273.88 L 328.45 1274.54 L 327.551 1276.98 C 324.253 1269.82 322.828 1266.31 320.512 1258.8 C 321.787 1255.73 321.005 1256.63 323.263 1254.51 L 325.313 1255.8 C 329.759 1253.92 332.295 1254.72 335.488 1258.12 L 330.21 1257.65 C 326.681 1260.48 332.084 1262.69 327.303 1268.81 L 327.592 1269.98 L 330.977 1267.63 C 331.762 1270.09 331.889 1270.27 333.196 1272.52 C 334.117 1272.37 354.927 1265.44 356.835 1264.71 L 357.406 1263.19 C 351.927 1264.95 353.443 1265.28 348.406 1264.29 C 349.227 1263.3 354.183 1261.2 356.464 1259.28 C 353.902 1258.23 351.448 1258.55 348.629 1258.59 C 347.668 1255.71 351.856 1257.52 352.75 1253.21 C 350.401 1254.73 351.556 1254.61 349.276 1254.49 L 350.959 1251.57 C 348.223 1250.67 348.35 1250.78 346.118 1248.99 C 347.927 1246.05 363.773 1244.54 372.349 1240.88 C 375.735 1240.03 378.43 1239.46 380.804 1237.08 L 380.25 1232.45 L 381.368 1232.3 z"/>
<path transform="translate(0,0)" fill="rgb(248,252,253)" fill-opacity="0.690196" d="M 315.666 1243.66 C 316.837 1241.48 317.892 1236.56 318.867 1233.58 C 328.643 1230.58 370.988 1226.24 375.347 1220.09 C 374.101 1217.27 373.482 1216.99 371.423 1214.63 C 372.908 1214.33 374.397 1214.05 375.889 1213.79 L 379.336 1224.27 L 376.751 1223.02 L 375.4 1223.68 C 357.914 1232.11 340.837 1234.6 321.474 1234.54 C 321.534 1245.85 320.207 1239.18 317.274 1249.18 L 315.666 1243.66 z"/>
<path transform="translate(0,0)" fill="rgb(248,252,253)" fill-opacity="0.541176" d="M 372.349 1240.88 L 366.89 1240.36 L 367.006 1239.71 C 369.506 1236.65 372.311 1232.42 375.519 1230.72 L 376.153 1233.19 L 380.25 1232.45 L 380.804 1237.08 C 378.43 1239.46 375.735 1240.03 372.349 1240.88 z"/>
<path transform="translate(0,0)" fill="rgb(248,252,253)" fill-opacity="0.0313725" d="M 1554.45 1537.95 L 1554.84 1541.54 C 1553.39 1544.48 1548.39 1546.79 1545.43 1548.99 L 1545.19 1547.36 C 1547.61 1543.31 1550.84 1541.04 1554.45 1537.95 z"/>
<path transform="translate(0,0)" fill="rgb(248,252,253)" fill-opacity="0.0156863" d="M 1010.09 1763.2 C 1013.18 1763.63 1017.72 1763.71 1019.77 1765.37 L 1018.17 1766.11 C 1013.99 1765.98 1010.27 1766.21 1005.9 1766 L 1005.91 1765.05 L 1010.09 1763.2 z"/>
<path transform="translate(0,0)" fill="rgb(248,252,253)" fill-opacity="0.117647" d="M 567.922 1606.76 C 574.623 1608.66 575.721 1610.63 580.482 1615.52 C 575.33 1614.7 571.83 1610.41 567.922 1606.76 z"/>
<path transform="translate(0,0)" fill="rgb(248,252,253)" fill-opacity="0.0627451" d="M 1230.76 1734.38 C 1233.15 1733.76 1231.94 1733.77 1234.38 1734.4 C 1231.83 1736.56 1229.5 1736.7 1226.19 1737.42 C 1223.59 1738.5 1224.75 1738.61 1222.58 1737.9 C 1224.75 1735.83 1227.79 1735.29 1230.76 1734.38 z"/>
<path transform="translate(0,0)" fill="rgb(248,252,253)" fill-opacity="0.133333" d="M 1303.76 1709.06 L 1304.68 1708.67 L 1305.7 1709.21 C 1302.3 1710.99 1298.96 1712.55 1295.49 1714.19 L 1294.16 1714.14 L 1293.53 1713.14 C 1296.5 1710.94 1300.18 1710.14 1303.76 1709.06 z"/>
<path transform="translate(0,0)" fill="rgb(248,252,253)" fill-opacity="0.133333" d="M 780.465 1723.96 C 783.937 1724.28 791.323 1726.11 794.11 1728.11 C 789.991 1729.42 784.482 1725.96 780.465 1723.96 z"/>
<path transform="translate(0,0)" fill="rgb(248,252,253)" fill-opacity="0.0313725" d="M 435.853 1472.85 C 440.576 1475.2 440.126 1475.34 442.161 1480.29 C 438.193 1479.67 437.511 1476.29 435.853 1472.85 z"/>
</svg>